<?xml version="1.0" encoding="iso-8859-1"?>
<!-- Generator: Adobe Illustrator 19.0.0, SVG Export Plug-In . SVG Version: 6.00 Build 0)  -->
<svg version="1.1" id="Capa_1" xmlns="http://www.w3.org/2000/svg" xmlns:xlink="http://www.w3.org/1999/xlink" x="0px" y="0px"
	 viewBox="0 0 511.999 511.999" style="enable-background:new 0 0 511.999 511.999;" xml:space="preserve">
<path style="fill:#FF4A4A;" d="M255.998,0C147.059,0,58.43,88.629,58.43,197.568c0,37.618,10.251,77.556,30.467,118.703
	c16.03,32.627,38.342,66.111,66.317,99.521c47.491,56.721,94.228,93.115,96.194,94.638c1.351,1.045,2.972,1.568,4.591,1.568
	c1.619,0,3.24-0.523,4.591-1.568c1.967-1.522,48.703-37.917,96.194-94.638c27.974-33.411,50.287-66.895,66.317-99.521
	c20.216-41.147,30.467-81.085,30.467-118.703C453.568,88.629,364.939,0,255.998,0z"/>
<g>
	<path style="fill:#E7343F;" d="M255.998,0c-7.363,0-14.63,0.418-21.786,1.207c98.725,10.88,175.782,94.785,175.782,196.361
		c0,37.618-10.251,77.556-30.467,118.703c-16.03,32.627-38.342,66.111-66.317,99.521c-30.552,36.49-60.79,64.565-78.998,80.358
		c10.095,8.756,16.494,13.737,17.196,14.28c1.351,1.045,2.972,1.568,4.591,1.568c1.619,0,3.24-0.523,4.591-1.568
		c1.967-1.522,48.703-37.917,96.194-94.638c27.974-33.411,50.287-66.895,66.317-99.521c20.216-41.147,30.467-81.085,30.467-118.703
		C453.568,88.629,364.939,0,255.998,0z"/>
	<path style="fill:#E7343F;" d="M255.998,60.188c-75.752,0-137.381,61.628-137.381,137.381c0,75.751,61.628,137.38,137.381,137.38
		s137.38-61.628,137.38-137.38C393.379,121.817,331.751,60.188,255.998,60.188z"/>
</g>
<path style="fill:#FFDB57;" d="M352.06,187.456l-90.934-85.103c-2.885-2.699-7.368-2.699-10.253,0l-90.934,85.103
	c-2.249,2.105-2.983,5.37-1.852,8.233c1.131,2.865,3.898,4.746,6.978,4.746h19.165v62.326c0,4.143,3.359,7.502,7.502,7.502h37.432
	c4.143,0,7.502-3.359,7.502-7.502v-35.099h38.665v35.099c0,4.143,3.359,7.502,7.502,7.502h37.432c4.143,0,7.502-3.359,7.502-7.502
	v-62.326h19.165c3.08,0,5.847-1.882,6.978-4.746C355.042,192.826,354.307,189.561,352.06,187.456z"/>
<g>
</g>
<g>
</g>
<g>
</g>
<g>
</g>
<g>
</g>
<g>
</g>
<g>
</g>
<g>
</g>
<g>
</g>
<g>
</g>
<g>
</g>
<g>
</g>
<g>
</g>
<g>
</g>
<g>
</g>
</svg>
